<svg xmlns="http://www.w3.org/2000/svg" xmlns:xlink="http://www.w3.org/1999/xlink" width="169.363" height="260.568" viewBox="0 0 169.363 260.568">
  <defs>
    <linearGradient id="linear-gradient" x1="-0.204" y1="0.492" x2="1.309" y2="0.508" gradientUnits="objectBoundingBox">
      <stop offset="0" stop-color="#1c9698"/>
      <stop offset="1" stop-color="#bdab4b"/>
    </linearGradient>
  </defs>
  <path id="plant" d="M177.019,49.769h-8.685V32.4a4.343,4.343,0,0,0-4.343-4.343h-8.685V19.37a4.343,4.343,0,0,0-4.343-4.343H116.222V6.343A4.343,4.343,0,0,0,111.88,2H68.454a4.343,4.343,0,0,0-4.343,4.343v8.685H42.4a4.343,4.343,0,0,0-4.343,4.343v8.685H29.37A4.343,4.343,0,0,0,25.028,32.4v17.37H16.343A4.343,4.343,0,0,0,12,54.111V93.195a4.343,4.343,0,0,0,4.343,4.343h8.685v13.028a4.343,4.343,0,0,0,4.343,4.343h30.4v8.685a4.343,4.343,0,0,0,4.343,4.343h17.37v15.885c0,4.49.1,9.119.239,13.77l-19.542-3.257L50.215,138.358l-6.948,5.211,6.657,8.872-9.936,6.622,4.82,7.226L55.144,159.4l1.151,1.542a4.343,4.343,0,0,0,2.762,1.676l23.016,3.839c.161,3.544.3,7.061.534,10.661l-13.718,13.74a121.059,121.059,0,0,1-36.56,25.109l-17.735,7.882a4.343,4.343,0,0,0,1.75,8.312A129.266,129.266,0,0,0,86.05,211.882c2.137,16.016,5.016,31.9,8.568,47.308a4.343,4.343,0,0,0,8.468,0c3.683-15.989,6.622-32.4,8.794-48.88a129.749,129.749,0,0,0,65.139,17.505,4.343,4.343,0,0,0,1.763-8.312l-17.735-7.882a121.059,121.059,0,0,1-36.573-25.109l-9.4-9.4c.434-6.822.721-13.505.9-20.093l38.649-15.464,15.442,11.564,5.211-6.948L161.2,135.613,167.6,126l-7.226-4.82L152.44,133.09,116.157,147.6c0-1.246.065-2.549.065-3.782V127.935h17.37a4.343,4.343,0,0,0,4.343-4.343V110.565h26.056a4.343,4.343,0,0,0,4.343-4.343V97.537h8.685a4.343,4.343,0,0,0,4.343-4.343V54.111A4.343,4.343,0,0,0,177.019,49.769ZM118.346,192.64A129.636,129.636,0,0,0,150.555,216.2a121.593,121.593,0,0,1-39.791-16.775,4.343,4.343,0,0,0-6.683,3.135c-1.346,11.508-3.1,23.016-5.211,34.376-2.041-10.922-3.735-22.008-5.068-33.13a4.343,4.343,0,0,0-6.835-3.04,121.159,121.159,0,0,1-44.221,19.82,129.584,129.584,0,0,0,32.27-23.606l15.151-15.121a4.343,4.343,0,0,0,1.264-3.37c-.829-11.907-1.264-23.589-1.264-34.671V127.935h17.37v15.885c0,11.082-.434,22.747-1.246,34.671a4.342,4.342,0,0,0,1.264,3.37Zm54.33-103.788h-8.685a4.343,4.343,0,0,0-4.343,4.343v8.685H133.593a4.343,4.343,0,0,0-4.343,4.343V119.25h-60.8v-30.4h34.741V101.88h8.685V84.509a4.343,4.343,0,0,0-4.343-4.343H90.167V62.8H111.88a4.343,4.343,0,0,0,4.343-4.343V41.083h8.685V32.4H111.88a4.343,4.343,0,0,0-4.343,4.343v17.37H85.824a4.343,4.343,0,0,0-4.343,4.343V80.167H64.111a4.343,4.343,0,0,0-4.343,4.343v21.713H33.713V97.537H46.741V88.852H20.685v-30.4h17.37v8.685A4.343,4.343,0,0,0,42.4,71.482h17.37V62.8H46.741V54.111A4.343,4.343,0,0,0,42.4,49.769H33.713V36.741H42.4A4.343,4.343,0,0,0,46.741,32.4V23.713h8.685v17.37a4.343,4.343,0,0,0,4.343,4.343h30.4a4.343,4.343,0,0,0,4.343-4.343V28.056H85.824v8.685H64.111V23.713h4.343A4.343,4.343,0,0,0,72.8,19.37V10.685h34.741V19.37a4.343,4.343,0,0,0,4.343,4.343h34.741V32.4a4.343,4.343,0,0,0,4.343,4.343h8.685V49.769h-30.4a4.343,4.343,0,0,0-4.343,4.343v30.4a4.343,4.343,0,0,0,4.343,4.343h21.713a4.343,4.343,0,0,0,4.343-4.343V71.482h-8.685v8.685H133.593V58.454h39.083Z" transform="translate(-12 -2)" fill="url(#linear-gradient)"/>
</svg>
